<svg xmlns="http://www.w3.org/2000/svg" version="1.0" viewBox="87.6 34.09 215.11 236.07"><g transform="translate(0.000000,319.000000) scale(0.1,-0.1)" fill="#000000" stroke="none"><path d="M1228 2830 c-20 -11 -47 -34 -60 -52 -21 -30 -23 -46 -29 -198 -7 -204 -15 -230 -95 -280 -114 -71 -172 -164 -154 -246 18 -78 100 -154 168 -154 21 0 22 -4 21 -92 0 -51 -5 -109 -12 -128 -11 -33 -14 -35 -58 -35 -92 -1 -134 -57 -133 -175 2 -102 31 -177 89 -228 60 -53 114 -67 218 -57 155 15 165 13 243 -34 l71 -42 6 -77 c10 -149 67 -245 164 -282 69 -26 97 -45 193 -132 212 -195 362 -173 593 87 48 53 103 104 136 124 173 104 236 186 266 346 17 86 42 140 89 193 50 56 67 96 78 191 22 174 -27 270 -152 296 -19 4 -75 25 -125 47 -57 25 -110 42 -145 45 -50 4 -61 1 -120 -34 -35 -21 -102 -76 -148 -121 l-84 -84 -47 6 c-175 21 -188 20 -216 -9 -14 -16 -35 -61 -48 -102 l-22 -73 -40 74 -39 74 11 92 c10 76 17 98 37 119 13 14 36 50 51 78 40 81 37 146 -14 272 -46 114 -50 151 -26 274 32 170 14 239 -75 285 -41 22 -52 23 -135 16 -130 -10 -200 -6 -259 16 -66 26 -149 25 -198 0z m196 -30 c64 -23 153 -28 262 -16 60 7 77 6 116 -12 85 -37 97 -86 63 -271 -22 -119 -17 -167 30 -277 48 -111 51 -174 13 -249 -14 -27 -34 -58 -44 -67 -29 -25 -124 -67 -169 -73 -91 -14 -165 44 -165 130 0 48 22 74 82 100 41 16 72 54 66 80 -5 24 -22 20 -28 -7 -4 -15 -25 -33 -63 -53 -32 -16 -65 -41 -73 -53 -21 -31 -20 -93 3 -140 45 -91 152 -108 297 -47 16 7 18 5 13 -8 -3 -9 -9 -50 -13 -91 l-7 -76 51 -102 c39 -79 50 -110 45 -131 l-6 -28 -26 24 c-109 103 -233 60 -325 -112 -18 -35 -36 -59 -39 -55 -3 5 -11 37 -17 71 -23 116 8 200 87 238 45 21 51 42 12 37 -35 -4 -91 -52 -114 -98 -27 -54 -25 -167 4 -253 12 -35 21 -77 19 -92 l-3 -29 -64 42 c-71 46 -86 48 -253 33 -72 -6 -96 -5 -133 9 -83 32 -131 112 -142 236 -7 71 14 123 57 145 38 20 72 14 118 -21 39 -30 58 -66 87 -158 12 -39 27 -72 33 -74 18 -6 15 12 -15 107 -21 66 -37 95 -68 128 -40 41 -41 43 -26 70 10 18 16 66 19 138 3 87 8 114 22 130 30 34 40 62 40 112 0 68 -55 181 -77 159 -4 -3 6 -31 22 -62 70 -138 1 -248 -115 -183 -22 13 -47 34 -56 47 -62 95 -21 192 120 281 89 56 98 81 105 291 7 184 13 204 73 233 45 22 112 21 182 -3z m1247 -899 c30 -10 74 -28 97 -40 23 -11 64 -26 92 -32 106 -23 149 -99 137 -243 -8 -95 -29 -150 -76 -201 -55 -59 -79 -112 -95 -203 -8 -43 -25 -101 -39 -128 -31 -61 -120 -146 -208 -196 -44 -26 -85 -62 -132 -118 -129 -152 -233 -221 -331 -221 -79 0 -128 26 -242 126 -61 55 -120 97 -154 112 -91 40 -104 49 -132 95 -59 93 -78 292 -39 402 39 112 130 206 198 206 67 0 143 -65 163 -139 13 -51 5 -70 -56 -125 -68 -61 -95 -124 -97 -227 -2 -99 16 -109 24 -14 9 114 26 153 92 218 65 64 81 100 66 150 -7 26 -6 34 8 45 28 22 153 83 218 108 33 12 73 27 89 34 41 15 20 37 -22 22 -28 -10 -31 -8 -42 19 -16 37 -79 94 -92 81 -5 -5 7 -25 32 -50 23 -23 40 -48 38 -57 -2 -9 -34 -30 -73 -48 -38 -18 -92 -44 -119 -59 l-48 -28 6 58 c12 94 46 209 72 237 27 29 35 30 129 10 122 -26 143 -20 192 52 20 30 139 126 188 152 49 26 86 26 156 2z"></path><path d="M1240 2761 c-16 -16 -32 -40 -36 -55 -7 -30 3 -79 15 -74 4 2 37 29 72 61 l64 59 -24 19 c-32 26 -58 24 -91 -10z m69 -8 c0 -5 -18 -23 -40 -42 -30 -25 -39 -29 -39 -17 0 21 44 66 65 66 8 0 15 -3 14 -7z"></path><path d="M1699 2730 l-24 -20 65 -60 c36 -32 70 -58 75 -56 6 2 10 29 10 61 -1 48 -4 60 -24 76 -30 25 -73 24 -102 -1z m91 -29 c5 -11 10 -29 10 -41 0 -19 -3 -19 -40 11 -48 39 -50 49 -10 49 19 0 33 -7 40 -19z"></path><path d="M1311 2526 c-17 -20 -2 -48 23 -44 24 3 34 37 14 49 -18 12 -24 11 -37 -5z"></path><path d="M1540 2505 c-17 -20 -5 -45 20 -45 11 0 23 7 26 15 6 15 -11 45 -26 45 -4 0 -13 -7 -20 -15z"></path><path d="M1358 2449 c-21 -11 -38 -26 -38 -34 0 -19 3 -19 42 5 18 11 50 20 70 20 30 0 42 -6 65 -35 15 -19 31 -35 36 -35 11 0 8 33 -6 50 -41 52 -105 63 -169 29z"></path><path d="M1381 2396 c-20 -24 -5 -65 26 -72 44 -11 88 30 67 64 -15 23 -77 28 -93 8z m67 -28 c-3 -7 -13 -13 -23 -13 -10 0 -20 6 -22 13 -3 7 5 12 22 12 17 0 25 -5 23 -12z"></path><path d="M1190 2316 c0 -15 74 -87 109 -105 43 -23 128 -32 193 -21 63 12 188 64 188 79 0 19 -16 17 -76 -11 -144 -67 -262 -58 -354 28 -50 47 -60 52 -60 30z"></path><path d="M2536 1877 c-10 -7 -17 -22 -14 -33 2 -15 13 -20 56 -22 60 -3 77 15 47 48 -21 23 -63 26 -89 7z m47 -24 c-7 -2 -19 -2 -25 0 -7 3 -2 5 12 5 14 0 19 -2 13 -5z"></path><path d="M2459 1764 c-10 -13 -10 -17 1 -24 17 -10 30 -4 30 15 0 22 -16 26 -31 9z"></path><path d="M2830 1767 c-36 -18 -35 -40 3 -57 19 -9 39 -30 50 -52 29 -59 67 -45 67 25 0 29 -7 46 -29 68 -32 32 -53 35 -91 16z m72 -34 c18 -22 30 -63 17 -63 -5 0 -9 5 -9 11 0 5 -15 23 -32 40 -29 26 -30 29 -12 29 12 0 28 -8 36 -17z"></path><path d="M2483 1683 c-22 -8 -15 -60 9 -77 27 -19 69 -21 86 -4 40 40 -36 105 -95 81z m65 -35 c20 -20 14 -30 -15 -26 -32 4 -46 38 -16 38 11 0 24 -5 31 -12z"></path><path d="M2661 1670 c-19 -11 -9 -45 14 -45 13 0 21 8 23 21 3 23 -17 37 -37 24z"></path><path d="M2573 1440 c-13 -5 -23 -14 -23 -19 0 -5 -8 -7 -18 -4 -25 6 -104 -55 -116 -90 -9 -24 -3 -43 42 -132 28 -58 56 -105 62 -105 17 0 12 17 -35 110 -25 49 -45 98 -45 109 0 26 70 83 93 76 9 -3 26 -8 37 -11 16 -5 20 -2 20 20 0 15 6 26 13 26 20 0 84 -50 147 -114 30 -31 58 -56 62 -56 22 0 2 35 -54 93 -82 84 -141 114 -185 97z"></path><path d="M2072 1189 c-75 -38 -114 -108 -125 -229 -7 -71 3 -146 18 -143 5 2 10 47 10 101 0 88 4 104 30 157 36 72 85 105 155 105 114 0 200 -138 216 -346 5 -61 11 -84 20 -84 32 0 4 209 -39 303 -63 138 -174 191 -285 136z"></path></g></svg>
