<svg xmlns="http://www.w3.org/2000/svg" xmlns:xlink="http://www.w3.org/1999/xlink" fill="#000000" version="1.1" id="Layer_1" xml:space="preserve" viewBox="19.13 0 473.75 512"><g>	<g>		<g>			<path d="M350.025,288.649c-4.863-0.002-8.809,3.94-8.808,8.812c-0.002,4.863,3.941,8.808,8.808,8.808     c4.865,0.002,8.812-3.947,8.811-8.809C358.835,292.588,354.889,288.65,350.025,288.649z"></path>			<path d="M365.269,234.28c-4.863-0.002-8.809,3.94-8.808,8.812c-0.002,4.863,3.941,8.808,8.808,8.808     c4.865,0.002,8.812-3.947,8.811-8.809C374.078,238.22,370.132,234.281,365.269,234.28z"></path>			<path d="M293.331,52.061c-0.001-4.871-3.947-8.81-8.811-8.811c-4.863-0.002-8.809,3.94-8.808,8.812     c-0.002,4.863,3.941,8.808,8.808,8.808C289.385,60.872,293.331,56.922,293.331,52.061z"></path>			<path d="M109.201,288.649c-4.863-0.002-8.809,3.94-8.808,8.812c-0.002,4.863,3.941,8.808,8.808,8.808     c4.865,0.002,8.812-3.947,8.811-8.809C118.011,292.588,114.065,288.65,109.201,288.649z"></path>			<path d="M353.544,107.705c-4.863-0.002-8.809,3.939-8.808,8.812c-0.002,4.863,3.941,8.808,8.808,8.808     c4.865,0.002,8.812-3.947,8.811-8.809C362.353,111.644,358.408,107.706,353.544,107.705z"></path>			<path d="M293.33,91.1c-4.863-0.002-8.809,3.94-8.808,8.812c-0.002,4.863,3.941,8.808,8.808,8.808     c4.865,0.002,8.812-3.947,8.811-8.809C302.14,95.041,298.194,91.102,293.33,91.1z"></path>			<path d="M400.255,194.191c-4.863-0.002-8.809,3.94-8.808,8.812c-0.002,4.863,3.941,8.808,8.808,8.808     c4.865,0.002,8.812-3.947,8.811-8.809C409.064,198.131,405.118,194.192,400.255,194.191z"></path>			<path d="M430.721,390.415c-4.863-0.002-8.809,3.939-8.808,8.812c-0.002,4.863,3.941,8.808,8.808,8.808     c4.865,0.002,8.812-3.947,8.811-8.809C439.531,394.354,435.586,390.416,430.721,390.415z"></path>			<path d="M382.888,399.225c-4.863-0.002-8.809,3.94-8.808,8.812c-0.002,4.863,3.941,8.808,8.808,8.808     c4.865,0.002,8.811-3.947,8.811-8.809C391.698,403.165,387.752,399.226,382.888,399.225z"></path>			<path d="M374.078,447.267c-4.863-0.002-8.809,3.939-8.808,8.812c-0.002,4.863,3.941,8.808,8.808,8.808     c4.865,0.002,8.812-3.947,8.811-8.809C382.888,451.206,378.942,447.268,374.078,447.267z"></path>			<path d="M424.938,144.076c-22.638-42.538-47.66-76.587-74.369-101.2C319.698,14.425,287.88,0,256,0     c-31.879,0-63.695,14.425-94.567,42.875c-26.709,24.615-51.73,58.663-74.368,101.2c-40.636,76.356-67.938,172.122-67.938,238.3     c0,29.967,5.464,53.718,16.708,72.611c10.475,17.605,25.696,30.549,46.53,39.576c37.282,16.152,86.419,17.436,146.782,17.436     c4.375,0,8.786-0.007,13.23-0.013c9.01-0.014,18.229-0.014,27.251,0c4.444,0.007,8.855,0.013,13.225,0.013     c0.007,0,0.004,0,0.012,0c60.359,0,109.504-1.286,146.775-17.433c20.833-9.025,36.053-21.971,46.528-39.576     c11.241-18.894,16.706-42.647,16.706-72.615C492.875,316.197,465.573,220.432,424.938,144.076z M101.543,151.78     c21.462-40.327,46.014-73.816,71.004-96.846C200.293,29.364,228.371,16.4,256,16.4c27.629,0,55.708,12.964,83.455,38.535     c24.99,23.03,49.544,56.519,71.005,96.846c2.451,4.606,4.852,9.283,7.201,14.021H94.343     C96.691,161.064,99.091,156.387,101.543,151.78z M86.542,182.201H425.46c22.087,48.276,38.567,101.18,46.236,147.597H40.306     C47.976,283.38,64.456,230.478,86.542,182.201z M462.075,446.605c-8.651,14.54-21.393,25.306-38.954,32.913     c-34.326,14.871-83.827,16.082-140.257,16.082h-0.012c-4.362,0-8.765-0.007-13.202-0.013c-4.518-0.007-9.07-0.013-13.652-0.013     c-4.583,0-9.132,0.007-13.646,0.013c-4.437,0.007-8.839,0.013-13.207,0.013c-56.428,0-105.931-1.21-140.263-16.085     c-17.561-7.608-30.303-18.375-38.956-32.914c-9.691-16.286-14.401-37.293-14.401-64.225c0-11.24,0.842-23.396,2.417-36.178     h436.113c1.577,12.781,2.417,24.937,2.417,36.178C476.476,409.309,471.766,430.32,462.075,446.605z"></path>			<path d="M90.089,399.225c-4.863-0.002-8.809,3.94-8.808,8.812c-0.002,4.863,3.941,8.808,8.808,8.808     c4.865,0.002,8.811-3.947,8.811-8.809C98.898,403.165,94.953,399.226,90.089,399.225z"></path>			<path d="M417.874,268.449c-4.863-0.002-8.809,3.94-8.808,8.812c-0.002,4.863,3.941,8.808,8.808,8.808     c4.865,0.002,8.811-3.947,8.811-8.809C426.684,272.389,422.738,268.45,417.874,268.449z"></path>			<path d="M112.776,447.267c-4.863-0.002-8.809,3.939-8.808,8.812c-0.002,4.863,3.941,8.808,8.808,8.808     c4.865,0.002,8.812-3.947,8.811-8.809C121.586,451.206,117.64,447.268,112.776,447.267z"></path>			<path d="M271.306,413.484c-4.863-0.002-8.809,3.94-8.808,8.812c-0.002,4.863,3.941,8.808,8.808,8.808     c4.865,0.002,8.812-3.947,8.811-8.809C280.116,417.424,276.171,413.485,271.306,413.484z"></path>		</g>	</g></g></svg>
